<svg id="_Icon_S-placeholder" data-name="🖼 Icon/S-placeholder" xmlns="http://www.w3.org/2000/svg" width="48" height="48" viewBox="0 0 48 48">
  <rect id="bounds" width="48" height="48" fill="rgba(28,143,248,0.34)" opacity="0"/>
  <path id="Shape" d="M10.064,10.634v-2.8a6.163,6.163,0,0,1,.059-.975,1.893,1.893,0,0,1,.266-.68,1.086,1.086,0,0,1,.669-.463,4.767,4.767,0,0,1,1.231-.128h2.8V0h-4.47Q6.735,0,5.042,1.841A7.756,7.756,0,0,0,3.348,7.266v3.367H0v5.593H3.348V32.454h6.716V16.227h4.47l.591-5.593Z" transform="translate(16 8)" fill="#fff"/>
</svg>
